<svg width="30" height="33" viewBox="0 0 30 33" fill="none" xmlns="http://www.w3.org/2000/svg">
<path d="M4.38678 12.7572C3.61456 12.6207 3.61456 11.4935 4.38678 11.3571C5.75408 11.1151 7.01954 10.4647 8.02182 9.48882C9.02411 8.51289 9.71782 7.25564 10.0145 5.87734L10.0607 5.66039C10.2279 4.88652 11.3148 4.87981 11.4908 5.65592L11.5458 5.90642C11.8533 7.27858 12.5528 8.52778 13.5564 9.49712C14.56 10.4665 15.823 11.1128 17.1867 11.3548C17.9633 11.489 17.9633 12.623 17.1867 12.7616C15.8229 13.0031 14.5597 13.6489 13.5557 14.6179C12.5517 15.5868 11.8517 16.8358 11.5436 18.2078L11.4864 18.4605C11.3125 19.2344 10.2257 19.2299 10.0585 18.4538L10.0145 18.2369C9.71753 16.858 9.02316 15.6003 8.02003 14.6243C7.01689 13.6483 5.75048 12.9983 4.38238 12.7572H4.38678Z" stroke="white" stroke-width="1.26923" stroke-linecap="round" stroke-linejoin="round"/>
<path d="M14.3831 22.0857C13.8215 21.9864 13.8215 21.1666 14.3831 21.0674C15.3775 20.8914 16.2979 20.4184 17.0268 19.7087C17.7557 18.9989 18.2602 18.0845 18.476 17.0821L18.5096 16.9244C18.6312 16.3615 19.4216 16.3567 19.5496 16.9211L19.5897 17.1033C19.8133 18.1012 20.3221 19.0097 21.052 19.7147C21.7819 20.4197 22.7004 20.8897 23.6921 21.0658C24.257 21.1634 24.257 21.9881 23.6921 22.0889C22.7003 22.2645 21.7816 22.7342 21.0514 23.4389C20.3212 24.1436 19.8121 25.0519 19.5881 26.0498L19.5464 26.2336C19.42 26.7964 18.6296 26.7931 18.508 26.2287L18.476 26.0709C18.26 25.0681 17.755 24.1534 17.0255 23.4436C16.2959 22.7338 15.3749 22.261 14.3799 22.0857H14.3831Z" stroke="white" stroke-width="1.26923" stroke-linecap="round" stroke-linejoin="round"/>
</svg>
