<svg width="23" height="14" viewBox="0 0 23 14" fill="none" xmlns="http://www.w3.org/2000/svg">
<path d="M18.6588 2.49673L16.9481 0.823291C16.5695 0.456191 16.0581 0.250232 15.525 0.250244H7.37437C6.8425 0.250244 6.32859 0.457666 5.95125 0.823291L4.24062 2.49673H0V11.4862H2.3C2.9325 11.4862 3.44281 10.987 3.44641 10.3717H3.77344L6.81375 13.0577C7.92422 13.9401 9.46594 13.9612 10.6088 13.1913C11.058 13.5709 11.5431 13.7502 12.0858 13.7502C12.7398 13.7502 13.3544 13.4901 13.8395 12.9065C14.6337 13.2124 15.5717 12.9979 16.1395 12.3159L17.0811 11.1803C17.2823 10.9377 17.4081 10.66 17.4728 10.3717H19.5536C19.5572 10.987 20.0711 11.4862 20.7 11.4862H23V2.49673H18.6588ZM1.725 10.3612C1.40875 10.3612 1.15 10.1081 1.15 9.79868C1.15 9.48931 1.40875 9.23618 1.725 9.23618C2.04125 9.23618 2.3 9.48931 2.3 9.79868C2.3 10.1116 2.04125 10.3612 1.725 10.3612ZM15.7406 10.1186L14.8027 11.2506C14.702 11.3702 14.5223 11.3913 14.3966 11.2928L13.5377 10.6108L12.4595 11.894C12.2439 12.1506 11.9205 12.0627 11.8127 11.9784L10.4902 10.8709L9.92953 11.5459C9.43 12.1471 8.52078 12.2385 7.94219 11.778L4.44547 8.68423H3.45V4.18071H4.95578L7.17313 2.01509C7.245 1.98696 7.30609 1.96235 7.37797 1.93423H9.41562L8.02484 3.18228C6.96828 4.12798 6.90719 5.72407 7.86672 6.7436C8.39859 7.31313 10.0661 8.19204 11.5144 6.89829L11.8091 6.63462L15.6975 9.72134C15.8197 9.81978 15.8377 9.99907 15.7406 10.1186ZM19.55 8.68423H17.0631C16.9805 8.58579 16.887 8.49438 16.7864 8.41353L13.0956 5.48149L13.5448 5.08071C13.7784 4.86978 13.7964 4.5147 13.5808 4.28618L13.1891 3.87485C12.9734 3.64634 12.6105 3.63228 12.3769 3.8397L10.3931 5.6186C10.0517 5.92446 9.46953 5.94907 9.14969 5.6186C8.81547 5.27056 8.84422 4.73618 9.19281 4.42681L11.5503 2.31392C11.8162 2.07485 12.1612 1.94478 12.5206 1.94478L15.5286 1.93774C15.6041 1.93774 15.6759 1.96587 15.7262 2.0186L17.9436 4.18423H19.55V8.68423ZM21.275 10.3612C20.9587 10.3612 20.7 10.1081 20.7 9.79868C20.7 9.48931 20.9587 9.23618 21.275 9.23618C21.5912 9.23618 21.85 9.48931 21.85 9.79868C21.85 10.1116 21.5912 10.3612 21.275 10.3612Z" fill="#7932B0"/>
</svg>
