<svg width="16" height="16" viewBox="0 0 16 16" fill="none" xmlns="http://www.w3.org/2000/svg">
<path d="M0.125 1.8125C0.125 1.36495 0.30279 0.935725 0.619257 0.619257C0.935725 0.30279 1.36495 0.125 1.8125 0.125H5.1875C5.63505 0.125 6.06428 0.30279 6.38074 0.619257C6.69721 0.935725 6.875 1.36495 6.875 1.8125V5.1875C6.875 5.63505 6.69721 6.06428 6.38074 6.38074C6.06428 6.69721 5.63505 6.875 5.1875 6.875H1.8125C1.36495 6.875 0.935725 6.69721 0.619257 6.38074C0.30279 6.06428 0.125 5.63505 0.125 5.1875V1.8125ZM1.8125 1.25C1.66332 1.25 1.52024 1.30926 1.41475 1.41475C1.30926 1.52024 1.25 1.66332 1.25 1.8125V5.1875C1.25 5.33668 1.30926 5.47976 1.41475 5.58525C1.52024 5.69074 1.66332 5.75 1.8125 5.75H5.1875C5.33668 5.75 5.47976 5.69074 5.58525 5.58525C5.69074 5.47976 5.75 5.33668 5.75 5.1875V1.8125C5.75 1.66332 5.69074 1.52024 5.58525 1.41475C5.47976 1.30926 5.33668 1.25 5.1875 1.25H1.8125ZM9.125 1.8125C9.125 1.36495 9.30279 0.935725 9.61926 0.619257C9.93572 0.30279 10.3649 0.125 10.8125 0.125H14.1875C14.6351 0.125 15.0643 0.30279 15.3807 0.619257C15.6972 0.935725 15.875 1.36495 15.875 1.8125V5.1875C15.875 5.63505 15.6972 6.06428 15.3807 6.38074C15.0643 6.69721 14.6351 6.875 14.1875 6.875H10.8125C10.3649 6.875 9.93572 6.69721 9.61926 6.38074C9.30279 6.06428 9.125 5.63505 9.125 5.1875V1.8125ZM10.8125 1.25C10.6633 1.25 10.5202 1.30926 10.4148 1.41475C10.3093 1.52024 10.25 1.66332 10.25 1.8125V5.1875C10.25 5.33668 10.3093 5.47976 10.4148 5.58525C10.5202 5.69074 10.6633 5.75 10.8125 5.75H14.1875C14.3367 5.75 14.4798 5.69074 14.5852 5.58525C14.6907 5.47976 14.75 5.33668 14.75 5.1875V1.8125C14.75 1.66332 14.6907 1.52024 14.5852 1.41475C14.4798 1.30926 14.3367 1.25 14.1875 1.25H10.8125ZM0.125 10.8125C0.125 10.3649 0.30279 9.93572 0.619257 9.61926C0.935725 9.30279 1.36495 9.125 1.8125 9.125H5.1875C5.63505 9.125 6.06428 9.30279 6.38074 9.61926C6.69721 9.93572 6.875 10.3649 6.875 10.8125V14.1875C6.875 14.6351 6.69721 15.0643 6.38074 15.3807C6.06428 15.6972 5.63505 15.875 5.1875 15.875H1.8125C1.36495 15.875 0.935725 15.6972 0.619257 15.3807C0.30279 15.0643 0.125 14.6351 0.125 14.1875V10.8125ZM1.8125 10.25C1.66332 10.25 1.52024 10.3093 1.41475 10.4148C1.30926 10.5202 1.25 10.6633 1.25 10.8125V14.1875C1.25 14.3367 1.30926 14.4798 1.41475 14.5852C1.52024 14.6907 1.66332 14.75 1.8125 14.75H5.1875C5.33668 14.75 5.47976 14.6907 5.58525 14.5852C5.69074 14.4798 5.75 14.3367 5.75 14.1875V10.8125C5.75 10.6633 5.69074 10.5202 5.58525 10.4148C5.47976 10.3093 5.33668 10.25 5.1875 10.25H1.8125ZM9.125 10.8125C9.125 10.3649 9.30279 9.93572 9.61926 9.61926C9.93572 9.30279 10.3649 9.125 10.8125 9.125H14.1875C14.6351 9.125 15.0643 9.30279 15.3807 9.61926C15.6972 9.93572 15.875 10.3649 15.875 10.8125V14.1875C15.875 14.6351 15.6972 15.0643 15.3807 15.3807C15.0643 15.6972 14.6351 15.875 14.1875 15.875H10.8125C10.3649 15.875 9.93572 15.6972 9.61926 15.3807C9.30279 15.0643 9.125 14.6351 9.125 14.1875V10.8125ZM10.8125 10.25C10.6633 10.25 10.5202 10.3093 10.4148 10.4148C10.3093 10.5202 10.25 10.6633 10.25 10.8125V14.1875C10.25 14.3367 10.3093 14.4798 10.4148 14.5852C10.5202 14.6907 10.6633 14.75 10.8125 14.75H14.1875C14.3367 14.75 14.4798 14.6907 14.5852 14.5852C14.6907 14.4798 14.75 14.3367 14.75 14.1875V10.8125C14.75 10.6633 14.6907 10.5202 14.5852 10.4148C14.4798 10.3093 14.3367 10.25 14.1875 10.25H10.8125Z" fill="#535353"/>
</svg>
